<?xml version="1.0" encoding="UTF-8" standalone="no"?>
<!-- Created with Inkscape (http://www.inkscape.org/) -->

<svg
   xmlns:dc="http://purl.org/dc/elements/1.1/"
   xmlns:cc="http://creativecommons.org/ns#"
   xmlns:rdf="http://www.w3.org/1999/02/22-rdf-syntax-ns#"
   xmlns:svg="http://www.w3.org/2000/svg"
   xmlns="http://www.w3.org/2000/svg"
   xmlns:sodipodi="http://sodipodi.sourceforge.net/DTD/sodipodi-0.dtd"
   xmlns:inkscape="http://www.inkscape.org/namespaces/inkscape"
   width="314.12061"
   height="91.557739"
   id="svg3188"
   version="1.1"
   inkscape:version="0.48.5 r10040"
   sodipodi:docname="IoT.svg"
   inkscape:export-filename="Z:\ISOTEL\Company\Logo\Pages\ISOTEL-Intuition.png"
   inkscape:export-xdpi="68.339996"
   inkscape:export-ydpi="68.339996">
  <defs
     id="defs3190" />
  <sodipodi:namedview
     id="base"
     pagecolor="#ffffff"
     bordercolor="#666666"
     borderopacity="1.0"
     inkscape:pageopacity="0.0"
     inkscape:pageshadow="2"
     inkscape:zoom="0.98994949"
     inkscape:cx="176.36192"
     inkscape:cy="24.860373"
     inkscape:document-units="px"
     inkscape:current-layer="layer1"
     showgrid="false"
     inkscape:window-width="1152"
     inkscape:window-height="733"
     inkscape:window-x="213"
     inkscape:window-y="75"
     inkscape:window-maximized="0"
     fit-margin-top="20"
     fit-margin-left="30"
     fit-margin-right="30"
     fit-margin-bottom="20" />
  <metadata
     id="metadata3193">
    <rdf:RDF>
      <cc:Work
         rdf:about="">
        <dc:format>image/svg+xml</dc:format>
        <dc:type
           rdf:resource="http://purl.org/dc/dcmitype/StillImage" />
        <dc:title></dc:title>
      </cc:Work>
    </rdf:RDF>
  </metadata>
  <g
     inkscape:label="Layer 1"
     inkscape:groupmode="layer"
     id="layer1"
     transform="translate(-61.35021,-143.92816)">
    <g
       id="g3241"
       transform="matrix(0.60842517,0,0,0.60842517,61.886639,-98.067033)"
       inkscape:export-filename="Z:\ISOTEL\Company\Logo\Pages\ISOTEL-Intuition.png"
       inkscape:export-xdpi="68.339996"
       inkscape:export-ydpi="68.339996">
      <g
         inkscape:export-ydpi="51.919998"
         inkscape:export-xdpi="51.919998"
         inkscape:export-filename="Z:\ISOTEL\Company\Logo\Pages\png\ISOTEL-Network-Logo.png"
         id="g7823"
         transform="matrix(0.07381125,0,0,-0.07381125,155.91722,515.58741)"
         style="opacity:0.5">
        <path
           inkscape:connector-curvature="0"
           d="m 587.5,585.941 562.5,0 C 1150,896.602 898.16,1148.44 587.5,1148.44 276.84,1148.44 25,896.602 25,585.941 l 562.5,0"
           style="fill:#000000;fill-opacity:1;fill-rule:nonzero;stroke:none"
           id="path7825" />
        <path
           inkscape:connector-curvature="0"
           d="M 1150,585.941 C 1150,896.602 898.16,1148.44 587.5,1148.44 276.84,1148.44 25,896.602 25,585.941"
           style="fill:none;stroke:#000000;stroke-width:5.625;stroke-linecap:butt;stroke-linejoin:miter;stroke-miterlimit:1;stroke-opacity:1;stroke-dasharray:none"
           id="path7827" />
        <path
           inkscape:connector-curvature="0"
           d="m 587.5,585.941 506.25,0 c 0,279.594 -226.656,506.249 -506.25,506.249 -279.594,0 -506.25,-226.655 -506.25,-506.249 l 506.25,0"
           style="fill:#ffffff;fill-opacity:1;fill-rule:nonzero;stroke:none"
           id="path7829" />
        <path
           inkscape:connector-curvature="0"
           d="m 1093.75,585.941 c 0,279.594 -226.656,506.249 -506.25,506.249 -279.594,0 -506.25,-226.655 -506.25,-506.249"
           style="fill:none;stroke:#ffffff;stroke-width:5.625;stroke-linecap:butt;stroke-linejoin:miter;stroke-miterlimit:1;stroke-opacity:1;stroke-dasharray:none"
           id="path7831" />
        <path
           inkscape:connector-curvature="0"
           d="m 587.5,585.941 281.25,0 c 0,155.329 -125.922,281.25 -281.25,281.25 -155.328,0 -281.25,-125.921 -281.25,-281.25 l 281.25,0"
           style="fill:#000000;fill-opacity:1;fill-rule:nonzero;stroke:none"
           id="path7833" />
        <path
           inkscape:connector-curvature="0"
           d="m 868.75,585.941 c 0,155.329 -125.922,281.25 -281.25,281.25 -155.328,0 -281.25,-125.921 -281.25,-281.25"
           style="fill:none;stroke:#000000;stroke-width:5.625;stroke-linecap:butt;stroke-linejoin:miter;stroke-miterlimit:1;stroke-opacity:1;stroke-dasharray:none"
           id="path7835" />
        <path
           inkscape:connector-curvature="0"
           d="m 587.5,585.941 168.75,0 c 0,93.196 -75.555,168.75 -168.75,168.75 -93.195,0 -168.75,-75.554 -168.75,-168.75 l 168.75,0"
           style="fill:#ffffff;fill-opacity:1;fill-rule:nonzero;stroke:none"
           id="path7837" />
        <path
           inkscape:connector-curvature="0"
           d="m 756.25,585.941 c 0,93.196 -75.555,168.75 -168.75,168.75 -93.195,0 -168.75,-75.554 -168.75,-168.75"
           style="fill:none;stroke:#ffffff;stroke-width:5.625;stroke-linecap:butt;stroke-linejoin:miter;stroke-miterlimit:1;stroke-opacity:1;stroke-dasharray:none"
           id="path7839" />
        <path
           inkscape:connector-curvature="0"
           d="m 587.5,585.941 562.5,0 C 1150,275.281 898.16,23.4414 587.5,23.4414 276.84,23.4414 25,275.281 25,585.941 l 562.5,0"
           style="fill:#ffffff;fill-opacity:1;fill-rule:nonzero;stroke:none"
           id="path7841" />
        <path
           inkscape:connector-curvature="0"
           d="M 1150,585.941 C 1150,275.281 898.16,23.4414 587.5,23.4414 276.84,23.4414 25,275.281 25,585.941"
           style="fill:none;stroke:#000000;stroke-width:16.875;stroke-linecap:butt;stroke-linejoin:miter;stroke-miterlimit:1;stroke-opacity:1;stroke-dasharray:none"
           id="path7843" />
        <path
           inkscape:connector-curvature="0"
           d="m 587.5,585.941 506.25,0 C 1093.75,306.348 867.094,79.6914 587.5,79.6914 307.906,79.6914 81.25,306.348 81.25,585.941 l 506.25,0"
           style="fill:#000000;fill-opacity:1;fill-rule:nonzero;stroke:none"
           id="path7845" />
        <path
           inkscape:connector-curvature="0"
           d="M 1093.75,585.941 C 1093.75,306.348 867.094,79.6914 587.5,79.6914 307.906,79.6914 81.25,306.348 81.25,585.941"
           style="fill:none;stroke:#000000;stroke-width:5.625;stroke-linecap:butt;stroke-linejoin:miter;stroke-miterlimit:1;stroke-opacity:1;stroke-dasharray:none"
           id="path7847" />
        <path
           inkscape:connector-curvature="0"
           d="m 587.5,585.941 281.25,0 c 0,-155.328 -125.922,-281.25 -281.25,-281.25 -155.328,0 -281.25,125.922 -281.25,281.25 l 281.25,0"
           style="fill:#ffffff;fill-opacity:1;fill-rule:nonzero;stroke:none"
           id="path7849" />
        <path
           inkscape:connector-curvature="0"
           d="m 868.75,585.941 c 0,-155.328 -125.922,-281.25 -281.25,-281.25 -155.328,0 -281.25,125.922 -281.25,281.25"
           style="fill:none;stroke:#ffffff;stroke-width:5.625;stroke-linecap:butt;stroke-linejoin:miter;stroke-miterlimit:1;stroke-opacity:1;stroke-dasharray:none"
           id="path7851" />
        <path
           inkscape:connector-curvature="0"
           d="m 587.5,585.941 168.75,0 c 0,-93.195 -75.555,-168.75 -168.75,-168.75 -93.195,0 -168.75,75.555 -168.75,168.75 l 168.75,0"
           style="fill:#000000;fill-opacity:1;fill-rule:nonzero;stroke:none"
           id="path7853" />
        <path
           inkscape:connector-curvature="0"
           d="m 756.25,585.941 c 0,-93.195 -75.555,-168.75 -168.75,-168.75 -93.195,0 -168.75,75.555 -168.75,168.75"
           style="fill:none;stroke:#000000;stroke-width:5.625;stroke-linecap:butt;stroke-linejoin:miter;stroke-miterlimit:1;stroke-opacity:1;stroke-dasharray:none"
           id="path7855" />
      </g>
      <text
         inkscape:export-ydpi="51.919998"
         inkscape:export-xdpi="51.919998"
         inkscape:export-filename="Z:\ISOTEL\Company\Logo\Pages\png\ISOTEL-Network-Logo.png"
         sodipodi:linespacing="120%"
         id="text7863"
         y="514.20911"
         x="40.599297"
         style="font-size:12px;font-style:normal;font-weight:normal;line-height:120.00000477%;letter-spacing:0px;word-spacing:0px;fill:#000000;fill-opacity:1;stroke:none;font-family:Arial;-inkscape-font-specification:Arial"
         xml:space="preserve"><tspan
           style="font-size:117px;font-weight:bold;line-height:120.00000477%;fill:#808080"
           y="514.20911"
           x="40.599297"
           id="tspan7865"
           sodipodi:role="line">IS   TEL</tspan><tspan
           id="tspan7867"
           style="font-size:117px;font-weight:bold;line-height:120.00000477%;fill:#000080"
           y="654.60913"
           x="40.599297"
           sodipodi:role="line" /></text>
    </g>
  </g>
</svg>
